<svg xmlns="http://www.w3.org/2000/svg" version="1.1" xmlns:xlink="http://www.w3.org/1999/xlink" xmlns:svgjs="http://svgjs.com/svgjs" width="512" height="512" x="0" y="0" viewBox="0 0 512 512" style="enable-background:new 0 0 512 512" xml:space="preserve" class=""><g><path d="m272.625 313.971-40.96-17.88H94.928l-40.96 17.88a45.554 45.554 0 0 0-27.288 43.677l4.176 98.52c.345 8.129 7.035 14.541 15.171 14.541h234.541c8.136 0 14.826-6.413 15.171-14.541l4.176-98.52a45.557 45.557 0 0 0-27.29-43.677z" style="" fill="#825a5a" data-original="#825a5a"></path><path d="M125.34 242.95h75.921v75.921H125.34z" style="" fill="#fad7a5" data-original="#fad7a5"></path><path d="M125.336 265a90.766 90.766 0 0 0 37.96 8.315c13.479 0 26.345-2.981 37.96-8.315v-22.053h-75.921V265h.001z" style="" fill="#f0c891" data-original="#f0c891"></path><circle cx="163.3" cy="45.553" r="45.553" style="" fill="#9b7369" data-original="#9b7369" class=""></circle><ellipse cx="163.3" cy="125.27" rx="91.11" ry="87.31" style="" fill="#825a5a" data-original="#825a5a"></ellipse><path d="M132.928 136.658c-30.368-30.368-34.908-56.55-34.19-72.98-16.402 15.788-26.547 37.552-26.547 61.592 0 16.465 4.775 31.842 13.053 44.966l47.684-33.578z" style="" fill="#6e4b53" data-original="#6e4b53"></path><path d="M249.86 152.158c-.608-.197-4.353-.316-4.353-.316-4.027 0-7.889-1.6-10.737-4.448l-6.552-6.552c-2.63-2.63-6.106-4.21-9.819-4.418-14.778-.827-55.756-4.504-88.313-20.479-3.475-1.705-7.721-.776-9.804 2.486-8.529 13.353-19.08 23.949-24.999 29.394a15.16 15.16 0 0 1-10.293 4.017h-5.463l-.012.002c-.832.016-1.682.103-2.547.27-7.389 1.428-12.368 8.492-12.368 16.017v5.502c0 7.262 4.65 14.113 11.722 15.764 1.593.372 3.143.477 4.627.359 3.775-.301 7.07 2.446 7.75 6.171 6.454 35.374 37.36 62.204 74.599 62.204s68.144-26.83 74.599-62.204c.68-3.725 3.975-6.472 7.75-6.171 1.484.118 3.034.013 4.626-.359 7.072-1.651 11.722-8.502 11.722-15.764v-6.918c-.001-7.145-5.34-12.35-12.135-14.557z" style="" fill="#ffe1b4" data-original="#ffe1b4"></path><path d="M117.744 182.21V122.2c-8.002 11.561-17.116 20.706-22.462 25.625a15.16 15.16 0 0 1-10.293 4.017h-5.463l-.012.002c-.832.015-1.682.103-2.547.27-7.389 1.428-12.368 8.492-12.368 16.017v5.502c0 7.262 4.65 14.113 11.722 15.764 1.593.372 3.143.477 4.626.359 3.775-.301 7.07 2.446 7.75 6.171 6.454 35.374 37.36 62.204 74.599 62.204 5.162 0 10.184-.563 15.054-1.546-34.588-7.084-60.606-37.691-60.606-74.375z" style="" fill="#fad7a5" data-original="#fad7a5"></path><path d="m67.465 357.231-27.74-33.288c-8.625 8.818-13.589 20.884-13.046 33.706l4.176 98.52c.345 8.129 7.035 14.541 15.171 14.541h33.757v-79.456a53.14 53.14 0 0 0-12.318-34.023zM214.217 278.684a7.592 7.592 0 0 0-10.737 0l-36.701 36.701a4.927 4.927 0 0 1-6.966 0l-36.701-36.701a7.592 7.592 0 0 0-10.737 0l-17.408 17.408 28.092 45.598c2.443 3.966 7.849 4.816 11.392 1.793l16.837-14.368c1.738-1.483 4.416-.248 4.416 2.037V470.71h15.184V331.152c0-2.285 2.678-3.52 4.416-2.037l16.837 14.367c3.543 3.024 8.949 2.173 11.392-1.793l28.092-45.598-17.408-17.407z" style="" fill="#9b7369" data-original="#9b7369" class=""></path><path d="M369.748 297.29h-55.803a24.773 24.773 0 0 0-17.518 7.256l-25.776 25.776h99.097V297.29z" style="" fill="#ecb24a" data-original="#ecb24a"></path><path d="M419.297 297.29h-55.803a24.773 24.773 0 0 0-17.518 7.256L320.2 330.323h99.097V297.29z" style="" fill="#ffc850" data-original="#ffc850"></path><path d="m395.524 304.547-20.939 20.939a16.516 16.516 0 0 1-11.679 4.837H262.393c-13.682 0-24.774 11.092-24.774 24.774v132.129c0 13.682 11.092 24.774 24.774 24.774h198.194c13.682 0 24.774-11.092 24.774-24.774V322.065c0-13.682-11.092-24.774-24.774-24.774h-47.545a24.767 24.767 0 0 0-17.518 7.256z" style="" fill="#ffdc64" data-original="#ffdc64"></path><path d="M344.974 363.355h-66.065a8.258 8.258 0 0 0-8.258 8.258v16.516a8.258 8.258 0 0 0 8.258 8.258h66.065a8.258 8.258 0 0 0 8.258-8.258v-16.516a8.258 8.258 0 0 0-8.258-8.258z" style="" fill="#ffffff" data-original="#ffffff"></path></g></svg>